<?xml version="1.0" standalone="no"?>
<!DOCTYPE svg PUBLIC "-//W3C//DTD SVG 20010904//EN"
 "http://www.w3.org/TR/2001/REC-SVG-20010904/DTD/svg10.dtd">
<svg version="1.0" xmlns="http://www.w3.org/2000/svg"
 width="500.000000pt" height="500.000000pt" viewBox="0 0 500.000000 500.000000"
 preserveAspectRatio="xMidYMid meet">
<metadata>
Created by potrace 1.16, written by Peter Selinger 2001-2019
</metadata>
<g transform="translate(0.000000,500.000000) scale(0.100000,-0.100000)"
fill="#000000" stroke="none">
<path d="M0 2500 l0 -2500 2500 0 2500 0 0 2500 0 2500 -2500 0 -2500 0 0
-2500z m2378 665 c43 -19 79 -50 98 -87 16 -30 18 -52 5 -44 -5 3 -11 -12 -14
-35 -11 -81 -93 -149 -182 -149 -54 0 -118 30 -141 65 -25 39 -28 23 -4 -24
12 -22 37 -50 56 -62 19 -12 33 -24 30 -27 -9 -8 -73 46 -95 81 -99 160 72
355 247 282z m119 -177 c-3 -8 -6 -5 -6 6 -1 11 2 17 5 13 3 -3 4 -12 1 -19z
m1608 -11 c4 -17 5 -116 3 -219 -3 -172 -5 -189 -24 -215 l-21 -28 -167 0
c-91 0 -166 -3 -166 -7 0 -5 -8 -8 -17 -8 -15 0 -16 2 -3 10 12 8 12 10 -4 16
-10 4 -30 7 -45 8 -27 1 -35 20 -18 44 7 9 -12 12 -89 14 l-99 2 75 5 75 6 5
135 c4 95 7 126 13 105 5 -16 7 -75 6 -132 -2 -56 0 -106 4 -110 4 -3 7 2 8
13 0 18 1 18 9 -1 7 -16 9 -14 9 15 1 26 -2 31 -9 20 -8 -12 -10 -10 -10 8 0
15 4 21 12 16 7 -5 8 -3 3 6 -4 7 -7 44 -7 83 1 43 -3 76 -11 86 -8 10 -8 13
0 8 6 -4 13 -3 15 3 1 5 14 11 28 12 25 3 25 3 31 -102 l5 -105 4 75 4 75 3
-70 c3 -40 -1 -78 -7 -91 -7 -12 -10 -30 -7 -40 3 -13 5 -9 7 11 2 29 2 29 9
5 6 -21 13 -25 41 -25 l35 0 3 137 c2 92 6 139 15 146 20 16 73 22 86 9 7 -7
11 -60 11 -155 l0 -143 38 3 37 3 3 189 c1 119 7 194 13 203 7 7 29 13 50 13
35 0 39 -3 44 -33z m-1477 -69 c7 -7 12 -29 12 -49 0 -33 -4 -38 -31 -48 -42
-14 -59 0 -59 48 0 42 14 61 45 61 12 0 26 -5 33 -12z m173 -21 c0 -1 3 -60 5
-132 3 -71 7 -136 9 -142 3 -9 31 -14 87 -15 l83 -1 -60 -7 -60 -7 50 -2 c28
-1 44 -5 38 -8 -9 -3 -10 -10 -3 -24 9 -16 7 -19 -11 -19 -12 0 -19 -3 -15 -7
4 -5 134 -11 289 -14 l282 -6 -347 1 -346 2 -6 -38 c-11 -65 -33 -78 -132 -78
-91 0 -136 14 -171 52 -48 53 -15 306 44 329 32 12 63 3 63 -19 0 -9 -7 -57
-15 -107 -8 -49 -12 -105 -9 -123 l6 -33 57 3 56 3 5 192 c3 105 7 194 10 197
21 21 83 23 91 3z m849 9 c0 -2 -7 -7 -16 -10 -8 -3 -12 -2 -9 4 6 10 25 14
25 6z m64 -2 c10 -4 16 -17 15 -38 l-1 -31 -7 30 c-5 23 -13 31 -36 36 -22 5
-24 7 -8 8 12 0 28 -2 37 -5z m-1334 -94 c-8 -5 -19 -10 -25 -10 -5 0 -3 5 5
10 8 5 20 10 25 10 6 0 3 -5 -5 -10z m-150 -235 c0 -5 -5 -3 -10 5 -5 8 -10
20 -10 25 0 6 5 3 10 -5 5 -8 10 -19 10 -25z m1385 -23 c-8 -8 -25 10 -19 20
4 6 9 5 15 -3 4 -7 6 -15 4 -17z m-1356 -41 c37 -86 53 -178 46 -255 -4 -38
-11 -63 -15 -57 -4 8 -11 2 -20 -18 -6 -16 -40 -58 -74 -92 -69 -70 -178 -129
-236 -128 -34 0 -36 3 -74 80 -40 84 -58 99 -115 99 -55 0 -219 48 -301 89
-45 22 -87 38 -92 35 -5 -3 -7 -1 -6 4 4 13 -128 103 -137 94 -5 -4 -5 -2 -2
4 7 11 -19 29 -36 25 -5 -1 -6 3 -2 9 3 5 1 10 -5 10 -6 0 -13 -7 -16 -15 -4
-10 -14 -14 -28 -10 -16 5 -18 4 -6 -4 8 -6 26 -8 40 -6 14 3 19 2 13 -1 -23
-11 -14 -44 15 -55 24 -10 25 -12 8 -18 -17 -7 -18 -8 -3 -14 9 -3 17 -16 17
-27 0 -19 6 -29 38 -65 6 -7 12 -22 12 -32 0 -26 11 -39 39 -48 l24 -7 -24
-15 c-22 -13 -22 -14 -2 -10 14 3 28 -3 41 -18 40 -46 335 -125 472 -125 54
-1 62 -3 48 -13 -12 -10 -14 -17 -6 -31 13 -23 12 -23 -58 -42 -68 -18 -133
-14 -264 17 -250 58 -559 210 -625 307 -55 81 -22 213 65 259 81 43 155 29
258 -50 204 -156 428 -243 602 -234 51 3 101 12 125 22 22 10 48 17 58 16 19
-3 90 66 111 108 17 33 64 186 70 226 5 37 4 35 15 35 5 0 18 -22 30 -49z
m1328 3 c-3 -3 -12 -4 -19 -1 -8 3 -5 6 6 6 11 1 17 -2 13 -5z m40 0 c-3 -3
-12 -4 -19 -1 -8 3 -5 6 6 6 11 1 17 -2 13 -5z m40 -34 c7 -25 21 -27 19 -2
-1 12 8 18 32 20 29 3 32 1 33 -25 l1 -28 8 25 c6 19 8 11 7 -30 l-2 -55 -42
-3 c-28 -2 -43 1 -43 9 0 8 -4 8 -12 1 -7 -6 -31 -9 -53 -9 l-40 2 -1 45 c-1
35 0 37 3 10 4 -34 17 -50 38 -50 6 1 2 5 -8 11 -9 6 -15 15 -11 20 4 6 11 6
20 -2 11 -9 14 -7 14 9 0 16 -5 20 -17 16 -11 -4 -14 -2 -8 3 14 11 18 36 5
28 -5 -3 -10 -1 -10 5 0 6 -5 8 -12 4 -7 -4 -8 -3 -4 4 4 7 23 12 43 12 26 0
36 -5 40 -20z m232 6 c7 -8 11 -32 9 -53 -2 -31 -8 -39 -31 -47 -42 -15 -63 2
-59 50 1 22 5 45 7 52 6 17 60 15 74 -2z m-2659 -146 c0 -5 -5 -10 -11 -10 -5
0 -7 5 -4 10 3 6 8 10 11 10 2 0 4 -4 4 -10z m665 -490 c4 -6 -9 -10 -32 -9
-38 1 -38 1 -8 9 17 4 31 8 32 9 1 0 5 -3 8 -9z m42 4 c-3 -3 -12 -4 -19 -1
-8 3 -5 6 6 6 11 1 17 -2 13 -5z"/>
<path d="M3660 2849 c0 -5 5 -7 10 -4 6 3 10 8 10 11 0 2 -4 4 -10 4 -5 0 -10
-5 -10 -11z"/>
<path d="M3743 2583 c9 -2 25 -2 35 0 9 3 1 5 -18 5 -19 0 -27 -2 -17 -5z"/>
<path d="M3670 2570 c-9 -6 -10 -10 -3 -10 6 0 15 5 18 10 8 12 4 12 -15 0z"/>
<path d="M1078 2433 c6 -2 18 -2 25 0 6 3 1 5 -13 5 -14 0 -19 -2 -12 -5z"/>
<path d="M1155 2410 c3 -5 10 -10 16 -10 5 0 9 5 9 10 0 6 -7 10 -16 10 -8 0
-12 -4 -9 -10z"/>
<path d="M1280 2091 c0 -5 9 -7 20 -4 11 3 20 7 20 9 0 2 -9 4 -20 4 -11 0
-20 -4 -20 -9z"/>
<path d="M3639 2463 c-8 -9 -9 -14 -2 -10 7 5 13 -1 16 -15 3 -17 5 -14 6 10
1 37 -1 39 -20 15z"/>
<path d="M3743 2405 c-9 -20 -8 -25 3 -25 8 0 14 10 14 25 0 31 -2 31 -17 0z"/>
<path d="M3642 2394 c-7 -8 -8 -14 -3 -14 10 0 25 19 20 25 -2 1 -10 -3 -17
-11z"/>
</g>
</svg>
